<?xml version="1.0" standalone="no"?>
<!DOCTYPE svg PUBLIC "-//W3C//DTD SVG 20010904//EN"
 "http://www.w3.org/TR/2001/REC-SVG-20010904/DTD/svg10.dtd">
<svg version="1.0" xmlns="http://www.w3.org/2000/svg"
 width="531.000000pt" height="531.000000pt" viewBox="0 0 531.000000 531.000000"
 preserveAspectRatio="xMidYMid meet">
<metadata>
Created by potrace 1.14, written by Peter Selinger 2001-2017
</metadata>
<g transform="translate(0.000000,531.000000) scale(0.100000,-0.100000)"
fill="#000000" stroke="none">
<path d="M2540 4988 c0 -5 -5 -6 -10 -3 -11 7 -230 -61 -240 -74 -3 -3 -27
-14 -55 -24 -62 -22 -65 -23 -92 -32 -13 -4 -23 -11 -23 -15 0 -7 -20 -15 -56
-25 -6 -2 -34 -19 -63 -39 -28 -20 -51 -34 -51 -32 0 3 -11 -5 -23 -17 -50
-47 -98 -87 -105 -88 -6 0 -62 -64 -107 -121 -33 -42 -75 -118 -74 -135 1 -3
-3 -9 -8 -12 -13 -10 -63 -143 -79 -212 -30 -131 -34 -163 -39 -311 -2 -60 1
-110 6 -114 5 -3 5 -13 -1 -23 -5 -10 -6 -21 -3 -25 11 -10 13 -126 3 -126 -5
0 -15 8 -22 18 -12 17 -37 32 -65 38 -16 3 -54 -26 -48 -36 3 -5 6 -66 6 -135
1 -73 5 -125 11 -125 5 0 6 -4 3 -10 -3 -5 -3 -16 2 -22 9 -16 11 -31 19 -138
4 -47 9 -87 13 -90 9 -7 7 -72 -3 -92 -4 -9 -5 -22 -1 -28 9 -14 -8 -13 -24 3
-10 10 -11 9 -6 -5 4 -10 11 -18 16 -18 5 0 9 -8 9 -18 0 -28 11 -34 32 -15
10 9 21 13 26 9 4 -4 -1 -13 -10 -20 -16 -12 -16 -14 0 -31 16 -17 16 -17 -1
-11 -15 5 -17 2 -13 -17 3 -12 3 -16 0 -9 -7 15 -31 16 -40 0 -4 -7 -3 -8 5
-4 22 14 40 -13 34 -50 -4 -25 -2 -34 8 -34 10 -1 8 -5 -5 -15 -24 -18 -15
-30 12 -16 17 9 19 8 15 -9 -5 -18 -14 -24 -34 -22 -3 1 -6 -6 -6 -14 0 -8 6
-13 14 -10 7 3 13 -1 13 -10 0 -8 -4 -13 -9 -10 -9 6 -21 -16 -21 -37 0 -8 3
-8 8 -2 4 6 17 11 30 11 21 1 22 0 9 -19 -14 -22 -46 -39 -33 -18 4 6 2 11 -4
11 -7 0 -9 -7 -6 -16 3 -9 6 -22 6 -29 0 -8 7 -21 16 -30 9 -8 13 -22 10 -30
-3 -8 -2 -14 2 -14 23 4 31 -4 29 -27 -1 -16 4 -29 13 -32 13 -5 13 -3 0 14
-14 18 -13 18 10 -1 14 -11 27 -22 30 -24 3 -2 -3 -1 -12 2 -12 4 -15 2 -12
-8 3 -8 12 -11 22 -7 14 5 15 4 2 -11 -14 -15 -16 -15 -33 5 -10 11 -20 19
-22 16 -3 -3 1 -11 10 -18 8 -7 15 -19 15 -26 0 -8 8 -14 17 -14 15 0 15 -2
-2 -14 -18 -13 -30 -80 -12 -69 13 8 41 -28 45 -57 5 -32 5 -32 28 -15 19 15
19 15 -1 9 -18 -5 -18 -4 -2 6 9 6 22 8 28 4 8 -5 8 -9 -1 -14 -7 -4 -9 -13
-6 -19 4 -6 13 -8 19 -4 7 4 6 -1 -2 -10 -12 -15 -11 -20 5 -39 l19 -22 -25
15 c-49 30 -65 30 -30 0 19 -17 38 -30 42 -31 12 0 4 -36 -11 -54 -9 -10 -9
-16 -3 -16 6 0 9 -7 6 -15 -5 -11 -2 -13 10 -9 12 5 19 0 23 -15 3 -11 9 -21
14 -21 5 0 8 -3 8 -7 -3 -21 2 -33 15 -33 13 0 13 -4 0 -28 -7 -16 -15 -42
-17 -58 -2 -17 -7 -35 -11 -42 -4 -7 -4 -12 1 -13 15 -1 -42 -22 -59 -22 -10
0 -18 -4 -18 -8 0 -5 -3 -8 -7 -7 -13 4 -122 -33 -129 -43 -3 -5 -14 -9 -25
-9 -10 0 -19 -4 -19 -8 0 -5 -19 -19 -42 -32 -24 -13 -45 -26 -48 -29 -3 -3
-36 -22 -75 -41 -38 -19 -72 -38 -73 -43 -2 -4 -7 -5 -12 -2 -5 3 -16 -2 -24
-11 -9 -8 -16 -13 -16 -9 0 3 -24 -7 -52 -23 -29 -16 -96 -53 -148 -82 -52
-29 -135 -77 -183 -106 -49 -30 -92 -54 -97 -54 -4 0 -10 -3 -12 -7 -1 -5 -16
-16 -33 -25 l-30 -17 -3 -580 -2 -581 2065 0 2065 0 0 625 c0 614 0 624 -20
635 -11 6 -20 8 -20 4 0 -4 -8 0 -17 8 -19 17 -87 49 -116 55 -10 1 -28 9 -40
15 -12 7 -25 11 -29 10 -5 -1 -8 3 -8 8 0 5 -3 9 -7 8 -8 -1 -24 4 -68 22 -11
4 -36 14 -55 21 -19 7 -61 28 -92 46 -31 18 -61 33 -66 33 -5 0 -15 6 -21 13
-6 8 -29 20 -51 27 -22 7 -40 17 -40 22 0 4 -5 8 -11 8 -6 0 -31 14 -56 30
-24 17 -46 30 -49 30 -3 0 -24 13 -47 29 -23 15 -62 38 -87 51 -25 12 -48 27
-51 32 -3 5 -8 9 -10 8 -2 -1 -17 4 -34 10 -16 6 -36 13 -43 15 -7 3 -24 28
-37 57 -19 41 -23 62 -18 102 7 68 10 90 12 95 0 3 12 -6 26 -19 30 -28 34
-18 5 12 -11 12 -20 28 -20 36 0 9 7 11 20 7 11 -4 20 -2 20 4 0 6 -7 11 -15
11 -20 0 -19 17 2 28 20 12 28 66 8 58 -18 -6 -13 43 5 54 7 4 9 13 5 20 -6 9
-4 11 5 5 10 -6 12 -4 7 8 -7 20 4 22 21 5 25 -25 12 16 -14 43 l-26 27 26 -2
c28 -3 44 8 26 19 -5 3 -10 13 -10 22 0 12 3 13 14 4 9 -7 17 -8 20 -2 3 5 1
11 -6 13 -6 2 -8 10 -4 16 10 17 24 15 29 -5 3 -10 5 1 6 24 1 25 -4 43 -11
46 -10 4 -10 6 0 6 6 1 12 8 12 17 0 8 5 12 10 9 6 -3 10 -1 10 4 0 6 -7 11
-15 11 -16 0 -19 9 -9 34 8 20 18 20 37 1 13 -12 15 -12 20 5 3 11 1 20 -4 20
-6 0 -5 9 2 21 8 16 8 20 -1 14 -7 -4 -13 1 -17 13 -3 11 -12 23 -20 26 -17 7
-8 26 13 26 8 0 12 -4 9 -10 -3 -6 1 -7 10 -4 23 9 39 54 25 68 -8 8 -9 6 -5
-6 4 -10 4 -18 0 -18 -4 0 -14 8 -22 18 -8 9 -12 11 -8 5 8 -16 -3 -35 -16
-27 -5 3 -2 18 8 34 9 16 21 26 27 23 6 -4 5 1 -3 10 -8 10 -11 20 -7 24 3 3
-1 15 -11 25 -9 10 -11 18 -5 18 6 0 9 6 6 14 -3 8 1 25 9 38 40 62 54 131 72
353 7 78 14 125 21 136 2 4 0 10 -6 14 -6 4 -7 11 -4 17 4 6 8 27 9 47 1 20 7
46 12 57 12 23 6 44 -13 44 -8 0 -14 4 -14 9 0 5 -8 8 -17 6 -10 -2 -26 -4
-36 -4 -10 -1 -16 -4 -14 -8 3 -5 -1 -14 -9 -20 -21 -20 -25 0 -17 84 13 143
3 353 -21 430 -5 16 -11 46 -22 108 -5 29 -12 60 -14 60 -1 0 -3 11 -6 25 -14
77 -59 179 -112 250 -40 54 -144 160 -158 160 -6 0 -14 6 -17 14 -9 23 -185
144 -262 180 -73 34 -156 70 -165 72 -3 0 -18 6 -33 12 -45 19 -204 62 -251
69 -71 9 -216 10 -216 1z m-1070 -2077 c0 -5 -8 -15 -17 -22 -16 -13 -17 -12
-5 3 10 13 10 17 0 21 -8 4 -7 6 5 6 9 1 17 -3 17 -8z m2350 -140 c0 -6 -4
-13 -10 -16 -5 -3 -10 1 -10 9 0 9 5 16 10 16 6 0 10 -4 10 -9z m24 -97 c3 -8
2 -12 -4 -9 -6 3 -10 10 -10 16 0 14 7 11 14 -7z m-2339 -174 c-3 -5 -10 -10
-16 -10 -5 0 -9 5 -9 10 0 6 7 10 16 10 8 0 12 -4 9 -10z m15 -34 c0 -3 -4 -8
-10 -11 -5 -3 -10 -1 -10 4 0 6 5 11 10 11 6 0 10 -2 10 -4z m89 -173 c9 -18
9 -22 -2 -18 -7 3 -13 15 -14 26 -2 24 0 23 16 -8z m-1 -79 c2 -23 0 -25 -13
-14 -12 10 -13 16 -4 26 15 18 14 18 17 -12z m45 -21 c-7 -2 -19 -2 -25 0 -7
3 -2 5 12 5 14 0 19 -2 13 -5z m84 -299 c-9 -9 -28 6 -21 18 4 6 10 6 17 -1 6
-6 8 -13 4 -17z"/>
<path d="M3795 2520 c3 -5 8 -10 11 -10 2 0 4 5 4 10 0 6 -5 10 -11 10 -5 0
-7 -4 -4 -10z"/>
<path d="M1430 2506 c0 -2 7 -9 15 -16 13 -11 14 -10 9 4 -5 14 -24 23 -24 12z"/>
<path d="M3713 2202 c1 -12 6 -18 15 -15 7 3 10 9 5 12 -4 3 -11 10 -15 15 -4
4 -6 -1 -5 -12z"/>
<path d="M3746 2207 c3 -10 9 -15 12 -12 3 3 0 11 -7 18 -10 9 -11 8 -5 -6z"/>
<path d="M1611 2131 c-10 -6 -10 -10 -1 -16 13 -8 24 -1 19 14 -3 6 -10 7 -18
2z"/>
<path d="M1633 2035 c0 -8 4 -15 9 -15 4 0 8 7 8 15 0 8 -4 15 -8 15 -5 0 -9
-7 -9 -15z"/>
</g>
</svg>
